<svg width="18" height="21" xmlns="http://www.w3.org/2000/svg" xmlns:xlink="http://www.w3.org/1999/xlink">
  <path transform="matrix(.95 0 0 .95 .0004 5.6536)" fill="#262626" fill-rule="evenodd" d="M18.9474 0H0v11.7895c0 2.2091 1.7909 4 4 4h10.9474c2.2091 0 4-1.7909 4-4V0zM4 14.2895c-1.3807 0-2.5-1.1193-2.5-2.5V1.5h15.9474v10.2895c0 1.3807-1.1193 2.5-2.5 2.5H4z"/>
  <path transform="matrix(.95 0 0 .95 4.2878 .0001)" fill="#262626" d="M1.5 11.1525v-6.192C1.5 3.0493 3.0493 1.5 4.9605 1.5c1.9112 0 3.4605 1.5493 3.4605 3.4605v6.192a.75.75 0 0 0 1.5 0v-6.192C9.921 2.221 7.7002 0 4.9605 0 2.221 0 0 2.2209 0 4.9605v6.192a.75.75 0 0 0 1.5 0z"/>
</svg>