<svg width="13" height="16" xmlns="http://www.w3.org/2000/svg" xmlns:xlink="http://www.w3.org/1999/xlink">  
    <path transform="translate(.5 .5)" fill="#262626" d="M6 14.7859l-.357.3501L6 15.5l.357-.364L6 14.7859zm4.2392-4.3223l.357.3501-.357-.3501zm0-8.6724l.357-.35-.357.35zm-8.4784 0l-.357-.35.357.35zm0 8.6724l.357-.3501-.357.3501zM6.357 15.136l4.2392-4.3223-.714-.7002-4.2392 4.3223.714.7002zm4.2392-4.3223c2.5384-2.5882 2.5384-6.7844 0-9.3726l-.714.7002c2.157 2.1993 2.157 5.773 0 7.9722l.714.7002zm0-9.3726c-2.5384-2.5881-6.654-2.5881-9.1924 0l.714.7002c2.1463-2.1884 5.618-2.1884 7.7645 0l.7139-.7002zm-9.1924 0c-2.5384 2.5882-2.5384 6.7844 0 9.3726l.714-.7002c-2.157-2.1993-2.157-5.7729 0-7.9722l-.714-.7002zm0 9.3726L5.643 15.136l.714-.7002-4.2393-4.3223-.7139.7002z"/>
  <path transform="translate(4.5 4.5)" fill="#262626" d="M2 4.5c1.3807 0 2.5-1.1193 2.5-2.5h-1c0 .8284-.6716 1.5-1.5 1.5v1zM4.5 2C4.5.6193 3.3807-.5 2-.5v1c.8284 0 1.5.6716 1.5 1.5h1zM2-.5C.6193-.5-.5.6193-.5 2h1C.5 1.1716 1.1716.5 2 .5v-1zM-.5 2C-.5 3.3807.6193 4.5 2 4.5v-1C1.1716 3.5.5 2.8284.5 2h-1z"/>
</svg>