<svg width="7" height="14" xmlns="http://www.w3.org/2000/svg" xmlns:xlink="http://www.w3.org/1999/xlink"><use xlink:href="#path0_fill" transform="translate(-7.999 -.86)" fill="#FFF"/><defs><path id="path0_fill" fill-rule="evenodd" d="M11.111 5.285c-.4612-2.2153-1.849-3.8812-2.691-4.2307v4.343c.842-.0103 1.9502-.0533 2.691-.1123zm2.9134-.4635c-.1535.0471-.7756.2207-2.0059.3664-.2776-1.4765-.7786-2.7346-1.4321-3.643 1.4981.6493 2.7163 1.8181 3.438 3.2766zM8.4199 6.3758c.8421-.011 2.0225-.0573 2.8062-.1224.0645.5182.0808 1.0546.0808 1.6062 0 .7085-.0252 1.3956-.1297 2.045-.7716-.0624-1.9152-.1074-2.7573-.1174V6.3758zm0 4.3899v3.8996c.8421-.3259 2.089-1.7991 2.5886-3.7943-.7214-.0556-1.7465-.0951-2.5886-.1053zm2.1665 3.4091c.5889-.8185 1.0579-1.9171 1.3474-3.2075.9678.1114 1.5775.2411 1.8849.3186a6.9182 6.9182 0 0 1-3.2323 2.8889zm1.5803-8.0195a14.8018 14.8018 0 0 1-.0589 3.8456c1.1949.14 1.8745.309 2.1448.3879.3116-.7837.4885-1.6356.4885-2.5292a6.833 6.833 0 0 0-.5053-2.5757l.158.4463c-.0443.0158-.7141.2434-2.2271.425z"/></defs></svg>