<svg width="24" height="24" xmlns="http://www.w3.org/2000/svg" xmlns:xlink="http://www.w3.org/1999/xlink">
<path transform="translate(3 3)" fill="#FFF" fill-rule="evenodd" d="M16.5 0h-15C.66 0 0 .66 0 1.5v15c0 .84.66 1.5 1.5 1.5h15c.84 0 1.5-.66 1.5-1.5v-15c0-.84-.66-1.5-1.5-1.5zM9.0518 11.2609H6.8V8.9652h2.2519V6.9565c0-1.6356 1.2385-3.013 2.8148-3.1564H14.4v2.2956h-2.2519c-.4785 0-.8444.373-.8444.8608v2.0087h2.8148v2.2957h-2.8148v5.9392H9.0519v-5.9392zm2.8768 5.9392h4.3928c.4979 0 .8786-.3808.8786-.8786V1.6785c0-.4977-.3807-.8785-.8786-.8785H1.6786C1.1806.8.8 1.1808.8 1.6786v14.6429c0 .4978.3807.8786.8786.8786h6.7356v-5.2715H6.0714V8.4143h2.3428V6.9501c0-1.9622 1.523-3.6315 3.4851-3.8072H15.15v3.5143h-2.9286c-.1757 0-.2928.117-.2928.2929v1.4642h2.9285v3.5143h-2.9285v5.2715z"/>
</svg>