<svg width="24" height="24" xmlns="http://www.w3.org/2000/svg" xmlns:xlink="http://www.w3.org/1999/xlink"><use xlink:href="#path0_fill" transform="translate(3 3)" fill="#FFF"/><defs><path id="path0_fill" fill-rule="evenodd" d="M13.0326 0H4.9673C2.2283 0 0 2.2284 0 4.9674v8.0652C0 15.7717 2.2283 18 4.9673 18h8.0653C15.7717 18 18 15.7716 18 13.0326V4.9674C18.0001 2.2284 15.7717 0 13.0326 0zm3.9675 13.3579c0 2.0083-1.6339 3.6421-3.6422 3.6421h-8.716C2.6339 17.0001 1 15.3662 1 13.3579V4.6421C1 2.6339 2.6338 1 4.642 1h8.7158C15.3661 1 17 2.634 17 4.642l.0001 8.7159zM4.3618 9.0002c0-2.5574 2.0807-4.6381 4.6382-4.6381s4.6381 2.0807 4.6381 4.6381c0 2.5574-2.0806 4.638-4.6381 4.638-2.5575 0-4.6382-2.0806-4.6382-4.638zm9.073-6.166A.8036.8036 0 0 1 14 2.6c.2108 0 .4174.085.5658.2341a.804.804 0 0 1 .2341.566c0 .21-.0851.4165-.2341.5657A.8083.8083 0 0 1 14 4.2a.8067.8067 0 0 1-.5652-.2342A.807.807 0 0 1 13.2 3.4a.8052.8052 0 0 1 .1004-.3873.7908.7908 0 0 1 .1344-.1786z"/><path id="path1_fill" fill-rule="evenodd" d="M9.073.2341A.8035.8035 0 0 1 9.6382 0a.804.804 0 0 1 .5658.2341.804.804 0 0 1 .2341.566c0 .21-.0851.4166-.2341.5657a.8083.8083 0 0 1-.5658.2342.8066.8066 0 0 1-.5652-.2342A.8069.8069 0 0 1 8.8381.8.805.805 0 0 1 9.073.2341zm-4.4348 1.528C2.0807 1.762 0 3.8428 0 6.4003c0 2.5573 2.0807 4.6379 4.6382 4.6379s4.638-2.0806 4.638-4.638-2.0805-4.6381-4.638-4.6381zm0 8.4776c-2.1173 0-3.84-1.7224-3.84-3.8397 0-2.1174 1.7226-3.84 3.84-3.84s3.84 1.7226 3.84 3.84c0 2.1173-1.7227 3.8397-3.84 3.8397z"/></defs></svg>