<svg width="24" height="24" xmlns="http://www.w3.org/2000/svg" xmlns:xlink="http://www.w3.org/1999/xlink"><use xlink:href="#path0_fill" transform="translate(3 4.5)" fill="#FFF"/><defs><path id="path0_fill" fill-rule="evenodd" d="M17.5302 1.5949c.1223-.0313.275 0 .3667.0937.0916.0938.1222.25.0917.375-.275.9062-.8249 1.5624-1.4971 1.9062v.0936C16.4915 10.0942 12.092 15 6.7148 15c-3.0246 0-5.4687-.5312-6.5686-1.4373-.1222-.125-.1833-.2813-.1222-.4688.061-.1562.2138-.2812.3971-.2812 1.8026-.0313 2.9636-.4687 3.8496-.9999-1.711-.2188-2.7803-1.0624-3.3302-2.656-.0611-.1563 0-.3125.1222-.4063.1222-.0937.3055-.0937.4277-.0312.4583.3125.9166.375 1.4665.375C1.7959 8.3757.7266 7.1882.2989 5.7195c-.0306-.1562.0306-.3436.1528-.4061.1527-.0938.3055-.0625.4277.0313.336.281.7027.4686 1.2526.5623C.9405 4.6571.2073 2.8135 1.246.7825l.1833-.375.3055.3125C3.629 2.751 5.3705 3.6885 8.5479 4.3134v-.125c0-2.281 1.7415-4.1559 3.9107-4.1871.8554 0 2.0469.625 2.5358.9062a.0943.0943 0 0 1 .0333.0084c.0161.0064.0278.0109.0278-.0084.6111-.1875 1.3443-.5 2.1997-.875.1223-.0625.275-.0312.3667.0625.0917.0938.1222.2188.0611.375a4.3062 4.3062 0 0 1-.7638 1.3436l.611-.2187zm-1.7948 2.143l.1779-.0605c.5631-.2112.8892-.664 1.0967-1.0561l-1.156.3923c-.1482.0603-.326 0-.3853-.1509-.0593-.151-.0296-.332.0889-.4226.4742-.3923.8299-.8148 1.0967-1.2675-.5928.2414-1.1263.4527-1.5709.6036-.1779.0603-.3557.0301-.5335-.0603l-.0183-.0102c-.348-.1934-1.4463-.8043-2.1158-.7745-1.7784.0301-3.2012 1.5693-3.2012 3.4404v.845l-.3557-.0603c-3.2603-.6036-5.0684-1.4789-6.9654-3.3801-.8892 2.2935.9485 3.8932 1.571 4.3458l.741.5432h-.919c-.5928 0-1.2448-.0603-1.8376-.3319.652 1.3882 1.986 2.4143 3.1122 2.7463l-.089.6036c-.237 0-.4742 0-.7112.0301-.6225.0303-1.1856.0303-1.7192-.1509.5928 1.1469 1.6302 1.6298 3.3197 1.6298h.8892l-.741.5432c-.9188.7242-2.1044 1.3882-4.1496 1.5392.9781.4828 2.7861.9355 5.4834.9355 4.6213 0 8.892-4.711 8.892-9.9592v-.513z"/></defs></svg>