<svg width="115" height="12" xmlns="http://www.w3.org/2000/svg" xmlns:xlink="http://www.w3.org/1999/xlink"><use xlink:href="#path0_fill" transform="translate(.0003 .3489) scale(.95559)"/><use xlink:href="#path1_fill" transform="translate(30.5515 .3489) scale(.95559)"/><use xlink:href="#path2_fill" transform="translate(15.5745 .3489) scale(.95559)"/><use xlink:href="#path3_fill" transform="translate(44.4257 .3489) scale(.95559)"/><g fill="#57AD56"><g transform="translate(64.2723 .3489) scale(.95559)"><use xlink:href="#path4_fill"/><use xlink:href="#path5_stroke"/></g><g transform="translate(77.0906 .3489) scale(.95559)"><use xlink:href="#path6_fill"/><use xlink:href="#path7_stroke"/></g><g transform="translate(91.7456 .3489) scale(.95559)"><use xlink:href="#path8_fill"/><use xlink:href="#path9_stroke"/></g><g transform="translate(105.7583 .1195) scale(.95559)"><use xlink:href="#path10_fill"/><use xlink:href="#path11_stroke"/></g></g><defs><path id="path0_fill" d="M9.0385.2885V6.923c0 2.2115-.9616 3.125-3.2693 3.125-2.3077 0-3.2692-.9135-3.2692-3.125V0H.2885C.1442 0 0 .1442 0 .2885v6.7307c0 3.702 2.3558 5 5.7692 5 3.4135 0 5.7693-1.298 5.7693-5V0H9.3269c-.1442 0-.2884.0962-.2884.2885z"/><path id="path1_fill" d="M9.2308 1.923c.1923 0 .2884-.048.3365-.1922l.625-1.5866c.0481-.0961 0-.1442-.0961-.1442H1.1539C.3365 0 0 .2404 0 .8173v10.2885c0 .4807.2404.7211.8654.7211h8.3173c.1923 0 .2884-.0481.3365-.1923l.625-1.5865c.0481-.0962 0-.1442-.0961-.1442H2.4519V7.7885c0-.7212.3846-1.0577 1.4904-1.0577h3.3173c.1923 0 .2885-.0481.3365-.1923L8.2211 5c.0481-.0961 0-.1442-.0961-.1442H2.5V1.875h6.7308v.048z"/><path id="path2_fill" fill-rule="evenodd" d="M9.1827 5.577c.9615-.529 1.3461-1.4424 1.3461-2.5962C10.5288.3846 8.4134 0 6.2019 0H1.154C.3364 0 0 .2404 0 .8173v10.2885c0 .4807.2404.7211.8654.7211h6.202c2.3557 0 3.9903-.9134 3.9903-3.2692.0481-1.4423-.5289-2.6443-1.875-2.9808zM2.5 1.875h3.8942c1.2981 0 1.6827.4808 1.6827 1.4904 0 1.0096-.3846 1.4904-1.6827 1.4904H2.5V1.875zm0 8.0288h4.375c1.3942 0 1.7788-.4807 1.7788-1.5865S8.2692 6.6827 6.875 6.6827H3.9904c-1.1058 0-1.4904.3365-1.4904 1.0577v2.1634z"/><path id="path3_fill" fill-rule="evenodd" d="M8.5096 7.0673l2.6442 4.5673c.0481.0481.0481.1923-.048.1923H8.8462c-.1924 0-.2404-.0481-.3366-.1923l-2.4038-4.327H3.9423c-1.1058 0-1.4904.3366-1.4904 1.0578v3.4615H.2885c-.1443 0-.2885-.1442-.2885-.2884V.8173C0 .2403.3365 0 1.1538 0H6.202c2.9327 0 4.7116.7692 4.7116 3.6538 0 2.2116-1.1058 3.077-2.4039 3.4135zM2.4038 5.4808h4.1347c1.5384 0 1.875-.577 1.875-1.827 0-1.2019-.3366-1.7788-1.875-1.7788H2.4038v3.6058z"/><path id="path4_fill" d="M8.798 10.7692l-.048 1.0577H0V0h8.4135l.048 1.1058H1.202v4.0865h6.25v.9615h-6.25v4.6154h7.5962z"/><path id="path5_stroke" d="M8.75 11.8269v.125h.1195l.0054-.1193-.1249-.0057zm-8.75 0h-.125v.125H0v-.125zM0 0v-.125h-.125V0H0zm8.4135 0l.1248-.0054-.0052-.1196h-.1196V0zm.048 1.1058v.125h.1306l-.0057-.1305-.1249.0055zm-7.2596 0v-.125h-.125v.125h.125zm0 4.0865h-.125v.125h.125v-.125zm6.25 0h.125v-.125h-.125v.125zm0 .9615v.125h.125v-.125h-.125zm-6.25 0v-.125h-.125v.125h.125zm0 4.6154h-.125v.125h.125v-.125zm7.4713-.0056l-.048 1.0576.2497.0114.048-1.0577-.2497-.0113zm.0768.9383H0v.25h8.75v-.25zm-8.625.125V0h-.25v11.8269h.25zM0 .125h8.4135v-.25H0v.25zM8.2886.0054l.048 1.1058.2498-.0109-.048-1.1057-.2498.0108zm.173.9754H1.2018v.25h7.2596v-.25zm-7.3847.125v4.0865h.25V1.1058h-.25zm.125 4.2115h6.25v-.25h-6.25v.25zm6.125-.125v.9615h.25v-.9615h-.25zm.125.8365h-6.25v.25h6.25v-.25zm-6.375.125v4.6154h.25V6.1539h-.25zm.125 4.7404h7.5962v-.25H1.2019v.25z"/><path id="path6_fill" fill-rule="evenodd" d="M2.6442 8.75h6.9712l1.3461 3.0769h1.3462L6.875 0H5.4808L0 11.8269h1.298L2.6443 8.75zm.4327-1.0096L5.625 2.0193l.4808-1.202h.048l.4808 1.202 2.5 5.721H3.077z"/><path id="path7_stroke" d="M9.6154 8.75l.1145-.0501-.0328-.0749h-.0817v.125zm-6.9712 0v-.125h-.0817l-.0328.0749.1145.0501zm8.3173 3.0769l-.1145.0501.0328.0749h.0817v-.125zm1.3462 0v.125h.195l-.0814-.1771-.1136.0521zM6.875 0l.1136-.0522L6.955-.125H6.875V0zM5.4808 0v-.125h-.0799l-.0335.0724L5.4808 0zM0 11.8269l-.1134-.0525-.0823.1775H0v-.125zm1.298 0v.125h.0818l.0328-.0749-.1145-.0501zm4.327-9.8076l.1143.0509.0018-.0045-.1161-.0464zm-2.548 5.721l-.1142-.0508-.0784.1759h.1925v-.125zM6.1057.8174v-.125H6.021L5.9897.771l.116.0464zm.048 0L6.27.771 6.2385.6923h-.0846v.125zm.4808 1.202l-.1161.0464.0016.0036.1145-.05zm2.5 5.721v.125h.191l-.0764-.175-.1146.05zm.4808.8847H2.6442v.25h6.9712v-.25zm1.4607 3.1518L9.7299 8.6999l-.229.1002 1.3461 3.0769.2291-.1002zm1.2316-.0749h-1.3462v.25h1.3462v-.25zM6.7614.0522l5.4327 11.8269.2272-.1043L6.9886-.0522l-.2272.1044zM5.4808.125H6.875v-.25H5.4808v.25zM.1134 11.8795L5.5942.0525l-.2268-.105-5.4808 11.8269.2268.1051zm1.1847-.1776H0v.25h1.298v-.25zm1.2316-3.002l-1.3461 3.0769.229.1002 1.3461-3.0769-.229-.1002zm2.9811-6.7315l-2.548 5.7211.2283.1017 2.548-5.721-.2283-.1018zm.479-1.1975l-.4809 1.202.2322.0928.4807-1.202-.232-.0928zm.164-.0786h-.048v.25h.048v-.25zm.5969 1.2805L6.2699.771l-.232.0928.4807 1.202.232-.0929zm2.4985 5.7175l-2.5-5.7211-.2291.1001 2.5 5.7211.229-.1zm-6.1723.175h6.0577v-.25H3.077v.25z"/><path id="path8_fill" d="M5.625 1.1058v10.7211H4.423V1.1058H0L.048 0h10.0482v1.1058H5.625z"/><path id="path9_stroke" d="M5.625 11.8269v.125h.125v-.125h-.125zm-1.202 0h-.125v.125h.125v-.125zm0-10.7211h.125v-.125h-.125v.125zm-4.423 0l-.1249-.0055-.0057.1305H0v-.125zM.048 0v-.125h-.1196l-.0052.1196L.048 0zm10.0482 0h.125v-.125h-.125V0zm0 1.1058v.125h.125v-.125h-.125zm-4.5962 0v10.7211h.25V1.1058H5.5zm.125 10.5961H4.423v.25h1.202v-.25zm-1.077.125V1.1058h-.25v10.7211h.25zM4.423.9808H0v.25h4.423v-.25zM.125 1.1112L.1729.0054l-.2497-.0108-.048 1.1057.2497.0109zM.048.125h10.0481v-.25H.0481v.25zM9.971 0v1.1058h.2501V0h-.25zm.1251.9808H5.625v.25h4.4712v-.25z"/><path id="path10_fill" d="M3.9904 12.3077c-1.6346 0-2.9327-.3846-3.9904-1.0096l.1923-1.0577c1.1058.625 2.3558 1.0096 3.8462 1.0096 2.2115 0 3.3654-1.0096 3.3654-2.452 0-3.125-7.2116-1.4903-7.2116-5.5288C.1923 1.5385 1.4903 0 4.5193 0 5.9134 0 7.1634.2404 8.173.7212l-.1923 1.0096c-1.1058-.4327-2.1635-.6731-3.4135-.6731-2.3558 0-3.2212 1.0577-3.2212 2.1154 0 2.9808 7.2116 1.298 7.2116 5.5288-.048 2.1154-1.5866 3.6058-4.5673 3.6058z"/><path id="path11_stroke" d="M0 11.2981l-.123-.0224-.0156.0857.075.0443L0 11.2981zm.1923-1.0577l.0615-.1088-.153-.0865-.0315.1729.123.0224zM8.1731.7212l.1228.0233.018-.0947-.087-.0415-.0538.1129zm-.1923 1.0096l-.0456.1164.1402.0548.0282-.1478-.1228-.0234zm.5769 6.9711l.125.0029v-.0029h-.125zm-4.5673 3.4808c-1.6167.0013-2.8828-.3742-3.9268-.9922l-.1272.2152c1.0714.632 2.4014 1.0257 4.054 1.027v-.25zM.123 11.3204l.1923-1.0577-.246-.0447-.1923 1.0577.246.0447zm.0078-.9712c1.1179.631 2.3987 1.0244 3.9077 1.0258v-.25c-1.4718.0014-2.691-.3744-3.7847-.9934l-.123.2176zm3.9077 1.0258c1.123 0 1.9943-.2561 2.588-.7109.5974-.4576.9024-1.108.9024-1.866h-.25c0 .6843-.272 1.2598-.8044 1.6676-.5362.4106-1.3475.6593-2.436.6593v.25zm3.4904-2.577c0-.8454-.4951-1.364-1.1945-1.7253-.69-.3555-1.6041-.5743-2.5037-.8172-.9035-.244-1.7848-.5114-2.441-.9612C.7428 4.8507.3174 4.232.3174 3.2693h-.25c0 1.0564.476 1.7478 1.1811 2.2312.6961.4772 1.6177.7535 2.517.9964.9033.2438 1.792.4547 2.4543.7979.6528.3373 1.0592.7863 1.0592 1.5033h.25zM.3173 3.2693c0-.8327.3113-1.6138.9839-2.1886C1.9753.5044 3.025.125 4.5192.125v-.25C2.9846-.125 1.871.2648 1.1387.8906.405 1.5176.0673 2.3712.0673 3.2692h.25zM4.5193.125c1.3823-.0006 2.6052.2341 3.6.709l.1075-.2257C7.2024.1216 5.9253-.1244 4.5192-.125v.25zm3.531.5728L7.858 1.7074l.2456.0468.1923-1.0097-.2456-.0467zm-.024.9166c-1.1146-.4358-2.195-.681-3.459-.6817v.25c1.236-.0008 2.271.2349 3.368.6645l.091-.2328zM4.5673.9327c-1.1948 0-2.0307.268-2.5706.6873-.543.4216-.7755.9877-.7755 1.553h.25c0-.4923.2-.9838.6788-1.3555.4816-.374 1.2564-.6348 2.4173-.6348v-.25zM1.2211 3.173c.002.395.129.734.3372.9977.2095.261.5136.4729.8602.6412.6894.333 1.6022.5378 2.5012.7775.9024.2407 1.783.5155 2.4385.9845.6465.4626 1.0745 1.1144 1.0745 2.128h.25c0-1.102-.4734-1.8264-1.179-2.3313-.6968-.4986-1.619-.7826-2.5196-1.0227-.9039-.241-1.794-.439-2.4566-.761-.3295-.1592-.5889-.3378-.7737-.572-.1863-.2313-.2847-.4917-.2827-.842h-.25zm7.2116 5.526c-.0233 1.0262-.4068 1.8919-1.139 2.503-.7344.6129-1.8326.9806-3.3033.9806v.25c1.51 0 2.6714-.3775 3.4635-1.0387.7943-.6629 1.204-1.6001 1.2288-2.6892l-.25-.0057z"/></defs></svg>