<svg width="182" height="19" xmlns="http://www.w3.org/2000/svg" xmlns:xlink="http://www.w3.org/1999/xlink"><use xlink:href="#path0_fill" transform="matrix(.95275 0 0 .95275 .0002 .4805)" fill="#FFF"/><use xlink:href="#path1_fill" transform="matrix(.95275 0 0 .95275 48.737 .4805)" fill="#FFF"/><use xlink:href="#path2_fill" transform="matrix(.95275 0 0 .95275 24.845 .4805)" fill="#FFF"/><use xlink:href="#path3_fill" transform="matrix(.95275 0 0 .95275 70.8704 .4805)" fill="#FFF"/><g fill="#57AD56"><g transform="matrix(.95275 0 0 .95275 102.5311 .4805)"><use xlink:href="#path4_fill"/><use xlink:href="#path5_stroke"/></g><g transform="matrix(.95275 0 0 .95275 122.978 .4805)"><use xlink:href="#path6_fill"/><use xlink:href="#path7_stroke"/></g><g transform="matrix(.95275 0 0 .95275 146.3575 .4805)"><use xlink:href="#path8_fill"/><use xlink:href="#path9_stroke"/></g><g transform="matrix(.95275 0 0 .95275 168.71 .1185)"><use xlink:href="#path10_fill"/><use xlink:href="#path11_stroke"/></g></g><defs><path id="path0_fill" d="M14.4615.4615V11.077c0 3.5385-1.5384 5-5.2307 5-3.6923 0-5.2308-1.4615-5.2308-5V0H.4615C.2308 0 0 .2308 0 .4615v10.7693c0 5.923 3.7692 8 9.2308 8 5.4615 0 9.2307-2.077 9.2307-8V0h-3.5384c-.2308 0-.4616.1538-.4616.4615z"/><path id="path1_fill" d="M14.7692 3.077c.3077 0 .4616-.077.5385-.3078l1-2.5384c.0769-.1539 0-.2308-.1539-.2308H1.8461C.5385 0 0 .3846 0 1.3077v16.4615c0 .7693.3846 1.1539 1.3846 1.1539h13.3077c.3077 0 .4615-.0769.5385-.3077l1-2.5385c.0769-.1538 0-.2307-.1539-.2307H3.9231v-3.3847c0-1.1538.6154-1.6923 2.3846-1.6923h5.3077c.3077 0 .4615-.0769.5384-.3077l1-2.4615c.077-.1539 0-.2308-.1538-.2308H4V3h10.7692v.077z"/><path id="path2_fill" fill-rule="evenodd" d="M14.6923 8.9231c1.5385-.8462 2.1539-2.3077 2.1539-4.1538C16.8462.6153 13.4615 0 9.9231 0H1.846C.5386 0 0 .3846 0 1.3077v16.4616c0 .7692.3846 1.1538 1.3846 1.1538h9.9231c3.7692 0 6.3846-1.4616 6.3846-5.2308.0769-2.3077-.8461-4.2307-3-4.7692zM4 3h6.2308c2.0769 0 2.6923.7693 2.6923 2.3846 0 1.6154-.6154 2.3847-2.6923 2.3847H4V3zm0 12.8461h7c2.2308 0 2.8462-.7692 2.8462-2.5385 0-1.7691-.6154-2.6153-2.8462-2.6153H6.3846C4.6154 10.6923 4 11.2307 4 12.3845v3.4616z"/><path id="path3_fill" fill-rule="evenodd" d="M13.6154 11.3077l4.2308 7.3077c.0769.0769.0769.3077-.077.3077h-3.6154c-.3076 0-.3846-.0769-.5384-.3077l-3.8462-6.9231H6.3077c-1.7692 0-2.3846.5384-2.3846 1.6923v5.5385H.4615c-.2307 0-.4615-.2308-.4615-.4616V1.3077C0 .3847.5385 0 1.8462 0H9.923c4.6923 0 7.5384 1.2307 7.5384 5.8462 0 3.5384-1.7692 4.9231-3.8461 5.4615zM3.8462 8.7693h6.6153c2.4616 0 3-.9231 3-2.9231 0-1.9231-.5384-2.8462-3-2.8462H3.8462v5.7693z"/><path id="path4_fill" d="M14.0769 17.2308L14 18.9231H0V0h13.4615l.077 1.7692H1.9231v6.5385h10V9.846h-10v7.3847h12.1538z"/><path id="path5_stroke" d="M14 18.9231v.125h.1194l.0055-.1193L14 18.9231zm-14 0h-.125v.125H0v-.125zM0 0v-.125h-.125V0H0zm13.4615 0l.1249-.0054-.0052-.1196h-.1197V0zm.077 1.7692v.125h.1305l-.0057-.1304-.1248.0054zm-11.6154 0v-.125h-.125v.125h.125zm0 6.5385h-.125v.125h.125v-.125zm10 0h.125v-.125h-.125v.125zm0 1.5384v.125h.125v-.125h-.125zm-10 0v-.125h-.125v.125h.125zm0 7.3847h-.125v.125h.125v-.125zm12.029-.0057l-.077 1.6923.2498.0114.0769-1.6924-.2497-.0113zM14 18.7981H0v.25h14v-.25zm-13.875.125V0h-.25v18.9231h.25zM0 .125h13.4615v-.25H0v.25zM13.3367.0054l.0769 1.7693.2497-.0109-.0769-1.7692-.2497.0108zm.2018 1.6388H1.9231v.25h11.6154v-.25zm-11.7404.125v6.5385h.25V1.7692h-.25zm.125 6.6635h10v-.25h-10v.25zm9.875-.125V9.846h.25V8.3078h-.25zm.125 1.4134h-10v.25h10v-.25zm-10.125.125v7.3847h.25V9.8462h-.25zm.125 7.5097h12.1538v-.25H1.9231v.25z"/><path id="path6_fill" fill-rule="evenodd" d="M4.2308 14h11.1538l2.1539 4.9231h2.1538L11 0H8.7692L0 18.9231h2.077L4.2307 14zm.6923-1.6154L9 3.2308l.7692-1.923h.077l.7692 1.923 4 9.1538H4.9231z"/><path id="path7_stroke" d="M15.3846 14l.1145-.0501-.0327-.0749h-.0818V14zM4.2308 14v-.125H4.149l-.0328.0749.1146.0501zm13.3077 4.9231l-.1146.0501.0328.0749h.0818v-.125zm2.1538 0v.125h.195l-.0814-.1772-.1136.0522zM11 0l.1136-.0522-.0335-.0728H11V0zM8.7692 0v-.125h-.0798l-.0336.0724L8.7692 0zM0 18.9231l-.1134-.0526-.0823.1776H0v-.125zm2.077 0v.125h.0817l.0328-.0749-.1146-.0501zM9 3.2308l.1143.051.0018-.0045L9 3.2308zm-4.077 9.1538l-.1141-.0508-.0783.1758h.1925v-.125zM9.7693 1.3077v-.125h-.0846l-.0314.0786.116.0464zm.077 0l.116-.0464-.0314-.0786H9.846v.125zm.7692 1.9231l-.1161.0465.0015.0036.1146-.05zm4 9.1538v.125h.191l-.0765-.175-.1145.05zm.7692 1.4904H4.2308v.25h11.1538v-.25zm2.2684 4.998l-2.1539-4.9231-.229.1002 2.1538 4.9231.2291-.1002zm2.0393-.0749h-2.1538v.25h2.1538v-.25zM10.8864.0521l8.6923 18.9232.2272-.1044-8.6923-18.923-.2272.1043zM8.7692.125H11v-.25H8.7692v.25zM.1134 18.9757L8.8826.0526l-.2268-.1052-8.7692 18.9231.2268.1052zm1.9635-.1776H0v.25h2.077v-.25zm2.0393-4.8482L1.9625 18.873l.229.1002 2.1539-4.9231-.229-.1002zm4.7696-10.77l-4.077 9.1539.2285.1017 4.0769-9.1538-.2284-.1017zm.7674-1.9186l-.7693 1.9231.2322.0929.7692-1.9231-.2321-.0929zm.193-.0786h-.077v.25h.077v-.25zm.8852 2.0017l-.7692-1.923-.2321.0928.7692 1.923.2321-.0928zm3.9985 9.1502l-4-9.1538-.2291.1 4 9.1539.2291-.1001zm-9.8068.175h9.6923v-.25H4.9231v.25z"/><path id="path8_fill" d="M9 1.7692v17.1539H7.077V1.7692H0L.077 0h16.0768v1.7692H9z"/><path id="path9_stroke" d="M9 18.9231v.125h.125v-.125H9zm-1.923 0h-.125v.125h.125v-.125zm0-17.1539h.125v-.125h-.125v.125zm-7.077 0l-.1249-.0054-.0057.1304H0v-.125zM.077 0v-.125h-.1198l-.0052.1196L.077 0zm16.0768 0h.125v-.125h-.125V0zm0 1.7692v.125h.125v-.125h-.125zm-7.2788 0v17.1539h.25V1.7692h-.25zM9 18.7981H7.077v.25H9v-.25zm-1.798.125V1.7692h-.25v17.1539h.25zM7.077 1.6442H0v.25h7.077v-.25zm-6.9521.1305L.2019.0054-.048-.0054l-.0769 1.7692.2498.0109zM.0769.125h16.0769v-.25H.0769v.25zM16.0288 0v1.7692h.25V0h-.25zm.125 1.6442H9v.25h7.1538v-.25z"/><path id="path10_fill" d="M6.3846 19.6923c-2.6154 0-4.6923-.6154-6.3846-1.6154l.3077-1.6923C2.0769 17.3846 4.0769 18 6.4615 18c3.5385 0 5.3847-1.6154 5.3847-3.9231 0-5-11.5385-2.3846-11.5385-8.8461C.3077 2.4615 2.3847 0 7.2307 0c2.2308 0 4.2308.3846 5.8462 1.1539l-.3077 1.6153C11 2.077 9.3077 1.6923 7.3077 1.6923c-3.7692 0-5.1539 1.6923-5.1539 3.3846 0 4.7692 11.5385 2.077 11.5385 8.8462-.0769 3.3846-2.5385 5.7692-7.3077 5.7692z"/><path id="path11_stroke" d="M0 18.0769l-.123-.0223-.0156.0856.075.0443L0 18.0769zm.3077-1.6923l.0615-.1088-.153-.0865-.0315.173.123.0223zM13.0769 1.1539l.1228.0233.0181-.0947-.0871-.0415-.0538.1129zm-.3077 1.6153l-.0455.1164.1402.0549.0281-.1479-.1228-.0234zm.9231 11.1539l.125.0028v-.0028h-.125zm-7.3077 5.6442c-2.5974.0013-4.6424-.605-6.321-1.598l-.1272.2152c1.706 1.007 3.8149 1.6315 6.4482 1.6328v-.25zM.123 18.0993l.3077-1.6923-.246-.0447-.3077 1.6923.246.0447zm.1232-1.6059c1.7813 1.006 3.8121 1.6302 6.2153 1.6316v-.25c-2.366.0014-4.3352-.6052-6.0923-1.5992l-.123.2176zm6.2153 1.6316c1.7864 0 3.1627-.4076 4.0953-1.1219.9363-.7172 1.4144-1.7355 1.4144-2.9262h-.25c0 1.1171-.4451 2.0603-1.3164 2.7277-.8751.6703-2.1912 1.0704-3.9433 1.0704v.25zm5.5097-4.0481c0-1.3142-.7656-2.1231-1.8706-2.694-1.0956-.565-2.5506-.9127-3.991-1.3017-1.4444-.39-2.8666-.8206-3.9283-1.5485C1.1286 7.8111.4327 6.7993.4327 5.2307h-.25c0 1.6623.7464 2.7467 1.8572 3.5082 1.1017.7553 2.5642 1.1948 4.0044 1.5837 1.4442.3899 2.8737.7297 3.9416 1.2824 1.0585.5469 1.7353 1.2862 1.7353 2.4719h.25zM.4327 5.2308c0-1.352.506-2.6235 1.6004-3.5589C3.1291.7352 4.828.125 7.2308.125v-.25c-2.4433 0-4.2061.6206-5.36 1.6069C.715 2.4696.1826 3.8135.1826 5.2308h.25zM7.2307.125c2.219-.0006 4.1919.3784 5.7925 1.1417l.1075-.2257c-1.6302-.7751-3.6573-1.1654-5.9-1.166v.25zm5.7234 1.0055l-.3077 1.6153.2456.0468.3077-1.6154-.2456-.0467zm-.1393 1.5223c-1.7781-.6954-3.4932-1.0847-5.5071-1.0855v.25c1.986-.0008 3.6556.3791 5.416 1.0683l.0911-.2328zM7.3077 1.5673c-1.9016 0-3.2206.4267-4.067 1.084-.8495.6595-1.2119 1.543-1.2119 2.4256h.25c0-.8096.33-1.6185 1.1152-2.2282.7881-.612 2.046-1.0314 3.9137-1.0314v-.25zM2.0288 5.077c.002.6185.1966 1.1374.523 1.5497.328.4094.801.7386 1.3504 1.0051 1.0951.5296 2.5488.8551 3.9887 1.239 1.4432.385 2.8647.8275 3.9258 1.5867 1.0521.7529 1.7506 1.8175 1.7506 3.4657h.25c0-1.7365-.7438-2.8738-1.8551-3.669-1.1025-.7888-2.5656-1.2405-4.007-1.6249-1.4447-.3852-2.8756-.704-3.944-1.2225-.5323-.2574-.9606-.5533-1.2638-.936-.3045-.3797-.4706-.82-.4686-1.3938h-.25zm11.5385 8.8433c-.0377 1.6609-.6592 3.0674-1.8493 4.0608-1.1923.9951-2.9685 1.5863-5.3334 1.5863v.25c2.4043 0 4.2435-.6011 5.4936-1.6444 1.2522-1.0452 1.8999-2.5232 1.9391-4.247l-.25-.0057z"/></defs></svg>